<svg width="20" height="20" viewBox="0 0 20 20" fill="none" xmlns="http://www.w3.org/2000/svg">
<g clip-path="url(#clip0_2455_78)">
<path d="M15.4745 7.86167C14.9048 7.6823 14.6107 7.74277 14.0134 7.6773C13.09 7.57652 12.722 7.21496 12.5659 6.28464C12.4785 5.76527 12.5817 5.0048 12.3587 4.53402C11.9323 3.63621 10.9345 3.23355 9.93214 3.46339C9.08573 3.65777 8.38151 4.50496 8.34245 5.37464C8.29792 6.36761 8.86276 7.21496 9.83261 7.50746C10.2935 7.64652 10.7831 7.71652 11.2643 7.75199C12.147 7.81652 12.2148 8.30792 12.4534 8.71246C12.604 8.96746 12.7498 9.21871 12.7498 9.97918C12.7498 10.7396 12.6031 10.9907 12.4535 11.2457C12.2148 11.6493 11.9203 11.9137 11.0376 11.979C10.5564 12.0146 10.0657 12.0846 9.60604 12.2239C8.63604 12.5171 8.0712 13.3634 8.11573 14.3565C8.15479 15.2262 8.85901 16.0734 9.70542 16.2678C10.7078 16.4984 11.7056 16.095 12.132 15.1971C12.3559 14.7264 12.4785 14.1929 12.5659 13.6737C12.7229 12.7432 13.0909 12.3817 14.0134 12.2807C14.6107 12.2154 15.229 12.2807 15.7889 11.9623C16.3803 11.5295 16.9089 10.8795 16.9089 9.97918C16.9089 9.07855 16.3393 8.13449 15.4745 7.86167Z" fill="#F44250"/>
<path d="M6.00001 12.0894C4.83594 12.0894 3.88626 11.1366 3.88626 9.96835C3.88626 8.80022 4.83579 7.84741 5.99985 7.84741C7.16391 7.84741 8.1136 8.80022 8.1136 9.96835C8.1136 11.1355 7.16313 12.0894 5.99985 12.0894H6.00001ZM2.10626 16.3999C0.943756 16.3971 -0.00280625 15.4405 6.25136e-06 14.2713C0.00281875 13.1041 0.9561 12.1541 2.1211 12.1579C3.28422 12.1607 4.23094 13.1173 4.22735 14.2863C4.22454 15.4526 3.2711 16.4027 2.10626 16.3999ZM17.8113 16.3999C16.6453 16.4063 15.6884 15.4601 15.6817 14.2948C15.6753 13.1248 16.6183 12.1644 17.7795 12.1579C18.9455 12.1513 19.9025 13.0976 19.9091 14.2629C19.9155 15.4319 18.9725 16.3933 17.8113 16.3999Z" fill="#121212"/>
</g>
<defs>
<clipPath id="clip0_2455_78">
<rect width="20" height="20" fill="white"/>
</clipPath>
</defs>
</svg>
