<svg width="15" height="22" viewBox="0 0 15 22" fill="none" xmlns="http://www.w3.org/2000/svg">
<g clip-path="url(#clip0_2455_47)">
<path d="M0 17.2987L0.124395 17.1246L6.00744 5.96163L6.01986 5.84345L3.42656 0.97214C3.20918 0.564093 2.59746 0.667277 2.52621 1.12407L0 17.2987Z" fill="#FFC24A"/>
<path d="M0.0742188 17.1659L0.168262 16.9824L5.98973 5.93642L3.40281 1.0453C3.18783 0.641535 2.64186 0.744484 2.57131 1.19648L0.0742188 17.1659Z" fill="#FFA712"/>
<path d="M7.90928 9.5281L9.84023 7.55056L7.90869 3.86325C7.72535 3.51421 7.21342 3.51315 7.03201 3.86325L6 5.83124V5.99882L7.90922 9.5281H7.90928Z" fill="#F4BD62"/>
<path d="M7.87566 9.44581L9.75295 7.52323L7.87566 3.9486C7.69742 3.60929 7.26436 3.57372 7.08799 3.91403L6.05059 5.91261L6.01953 6.0148L7.87566 9.44581Z" fill="#FFA50E"/>
<path d="M0 17.2984L0.0563672 17.2417L0.261211 17.1585L7.78916 9.6585L7.88455 9.39887L6.00662 5.82031L0 17.2984Z" fill="#F6820C"/>
<path d="M8.15162 21.0814L14.9646 17.2818L13.0191 5.29963C12.9582 4.92475 12.4983 4.77657 12.2299 5.04534L0 17.299L6.77391 21.0811C6.98446 21.1987 7.22158 21.2604 7.46273 21.2604C7.70387 21.2605 7.94102 21.1989 8.15162 21.0814Z" fill="#FDE068"/>
<path d="M14.9022 17.2499L12.9714 5.35876C12.9111 4.98669 12.5286 4.83277 12.2622 5.09954L0.0742188 17.2757L6.77377 21.0203C6.98271 21.1369 7.21803 21.1982 7.45734 21.1983C7.69665 21.1983 7.93199 21.1372 8.141 21.0206L14.9022 17.2498L14.9022 17.2499Z" fill="#FCCA3F"/>
<path d="M8.1515 20.9695C7.94091 21.087 7.70377 21.1486 7.46264 21.1485C7.2215 21.1485 6.98439 21.0868 6.77385 20.9692L0.0544922 17.2415L0 17.2991L6.77385 21.0812C6.9844 21.1987 7.22152 21.2605 7.46267 21.2605C7.70381 21.2606 7.94096 21.1989 8.15156 21.0815L14.9646 17.2819L14.9479 17.1792L8.15156 20.9696L8.1515 20.9695Z" fill="#EEAB37"/>
</g>
<defs>
<clipPath id="clip0_2455_47">
<rect width="15" height="20.5664" fill="white" transform="translate(0 0.716797)"/>
</clipPath>
</defs>
</svg>
