<svg width="20" height="20" viewBox="0 0 20 20" fill="none" xmlns="http://www.w3.org/2000/svg">
<path d="M3.68891 17.0006L2.28516 1.25H17.7152L16.3095 16.9981L9.99078 18.75L3.68891 17.0006Z" fill="#1572B6"/>
<path d="M10 17.4112L15.1062 15.9956L16.3075 2.53809H10V17.4112Z" fill="#33A9DC"/>
<path d="M10 8.24447H12.5563L12.7325 6.26635H10V4.33447H14.8438L14.7975 4.8526L14.3231 10.1763H10V8.24447Z" fill="white"/>
<path d="M10.0103 13.2612L10.0016 13.2637L7.85031 12.6825L7.71281 11.1418H5.77344L6.04406 14.175L10.0009 15.2737L10.0103 15.2712V13.2612Z" fill="#EBEBEB"/>
<path d="M12.3908 10.0945L12.1583 12.6814L10.0039 13.2626V15.2726L13.9639 14.1751L13.9933 13.8489L14.3289 10.0945H12.3908Z" fill="white"/>
<path d="M10.0073 4.33447V6.26635H5.34109L5.30234 5.83197L5.21422 4.8526L5.16797 4.33447H10.0073ZM10.0005 8.24447V10.1763H7.87609L7.83734 9.74197L7.74984 8.7626L7.70359 8.24447H10.0005Z" fill="#EBEBEB"/>
</svg>
