<svg width="20" height="20" viewBox="0 0 20 20" fill="none" xmlns="http://www.w3.org/2000/svg">
<path d="M3.68953 17.0006L2.28516 1.25H17.7164L16.3102 16.9981L9.99141 18.75L3.68953 17.0006Z" fill="#E44F26"/>
<path d="M10 17.4112L15.1062 15.9956L16.3075 2.53809H10V17.4112Z" fill="#F1662A"/>
<path d="M10 8.37948H7.44375L7.2675 6.40136H10V4.46948H5.15625L5.2025 4.98823L5.67688 10.3114H10V8.37948ZM10 13.3964L9.99125 13.3989L7.84 12.8182L7.7025 11.2776H5.76312L6.03375 14.3101L9.99125 15.4089L10 15.4064V13.3964Z" fill="#EBEBEB"/>
<path d="M9.99219 8.37948V10.3114H12.3709L12.1472 12.817L9.99219 13.3982V15.4082L13.9528 14.3101L13.9816 13.9839L14.4353 8.89823L14.4828 8.37948H9.99219ZM9.99219 4.46948V6.40136H14.6584L14.6972 5.96761L14.7853 4.98823L14.8316 4.46948H9.99219Z" fill="white"/>
</svg>
