<svg width="20" height="20" viewBox="0 0 20 20" fill="none" xmlns="http://www.w3.org/2000/svg">
<g clip-path="url(#clip0_2455_81)">
<path d="M16.8575 13.1607C16.9419 13.1122 17.012 13.0424 17.0608 12.9582C17.1098 12.8739 17.1356 12.7782 17.1358 12.6807L17.1458 9.46572C17.146 9.36823 17.1719 9.27252 17.2208 9.18822C17.2699 9.10395 17.3403 9.03411 17.425 8.98572L19.1667 7.98322C19.2512 7.9349 19.3468 7.90961 19.4442 7.90988C19.5416 7.91012 19.6373 7.93598 19.7217 7.98488C19.806 8.03342 19.8761 8.10325 19.925 8.18738C19.9736 8.27177 19.9992 8.36748 19.9992 8.46488V14.3099C19.9991 14.4076 19.9732 14.5036 19.9242 14.5882C19.8752 14.6728 19.8048 14.7429 19.72 14.7915L13.1425 18.5699C13.0585 18.618 12.9634 18.6433 12.8667 18.6433C12.7699 18.6433 12.6748 18.618 12.5908 18.5699L7.42917 15.6182C7.34412 15.5697 7.2734 15.4995 7.22417 15.4149C7.17499 15.3301 7.14911 15.2338 7.14917 15.1357V12.1882C7.14917 12.1849 7.1525 12.1832 7.15584 12.1849C7.15917 12.1865 7.1625 12.1849 7.1625 12.1807V12.1774C7.1625 12.1749 7.16417 12.1732 7.16584 12.1715L11.4175 9.72988C11.4208 9.72738 11.4192 9.72155 11.415 9.72155C11.4144 9.72155 11.4137 9.7214 11.4131 9.72111C11.4126 9.72082 11.4121 9.7204 11.4117 9.71988C11.4113 9.71942 11.411 9.71888 11.4109 9.7183C11.4107 9.71773 11.4107 9.71713 11.4108 9.71655L11.4192 6.82738C11.4196 6.72952 11.3941 6.63329 11.3454 6.54842C11.2966 6.46355 11.2264 6.39305 11.1417 6.34405C11.0572 6.29526 10.9613 6.26958 10.8638 6.26958C10.7662 6.26958 10.6703 6.29526 10.5858 6.34405L7.42667 8.16572C7.34237 8.21419 7.24683 8.2397 7.14959 8.2397C7.05234 8.2397 6.9568 8.21419 6.8725 8.16572L3.7025 6.34072C3.61808 6.29226 3.52241 6.26683 3.42507 6.26697C3.32772 6.2671 3.23213 6.2928 3.14783 6.34148C3.06354 6.39017 2.99352 6.46013 2.94476 6.54438C2.896 6.62863 2.87022 6.72421 2.87 6.82155V12.044C2.87003 12.1414 2.8445 12.2371 2.79594 12.3214C2.74739 12.4058 2.67752 12.476 2.59333 12.5249C2.50927 12.5737 2.41387 12.5995 2.31667 12.5999C2.21934 12.6002 2.12365 12.5749 2.03917 12.5265L0.280001 11.5207C0.194949 11.4722 0.12423 11.402 0.0750012 11.3174C0.0256759 11.2323 -0.000204169 11.1357 1.21296e-06 11.0374L0.0158345 1.90988C0.0161367 1.81266 0.0419327 1.71722 0.0906477 1.63309C0.139363 1.54896 0.209293 1.47907 0.293458 1.43041C0.377623 1.38175 0.473079 1.35602 0.570297 1.35578C0.667516 1.35554 0.763098 1.3808 0.847501 1.42905L6.8725 4.88988C6.9568 4.93836 7.05234 4.96387 7.14959 4.96387C7.24683 4.96387 7.34237 4.93836 7.42667 4.88988L13.45 1.42905C13.5345 1.38069 13.6302 1.3554 13.7275 1.35572C13.825 1.35591 13.9207 1.38178 14.005 1.43072C14.0894 1.47948 14.1596 1.54961 14.2083 1.63405C14.2567 1.71853 14.2819 1.81422 14.2817 1.91155V11.0415C14.2817 11.139 14.2567 11.2349 14.2075 11.3199C14.1585 11.4044 14.0881 11.4746 14.0033 11.5232L10.8492 13.3399C10.7643 13.3888 10.6939 13.4592 10.645 13.544C10.5962 13.6287 10.5706 13.7247 10.5708 13.8224C10.5709 13.9201 10.5968 14.0161 10.6458 14.1007C10.6953 14.1855 10.7663 14.2557 10.8517 14.304L12.5917 15.2949C12.6755 15.3424 12.7703 15.3674 12.8667 15.3674C12.9638 15.3673 13.0592 15.3417 13.1433 15.2932L16.8575 13.1599V13.1607ZM17.2225 4.97072C17.2224 5.06876 17.2483 5.16509 17.2975 5.24988C17.3472 5.33477 17.4185 5.40495 17.5042 5.45322C17.5895 5.50146 17.6862 5.52625 17.7842 5.52508C17.8823 5.52391 17.9783 5.49682 18.0625 5.44655L19.73 4.44655C19.8122 4.39724 19.8803 4.32747 19.9275 4.24405C19.975 4.16047 19.9999 4.066 20 3.96988V1.93322C19.9998 1.8351 19.9736 1.73878 19.9242 1.65405C19.8746 1.56931 19.8034 1.49922 19.7179 1.45092C19.6324 1.40262 19.5357 1.37782 19.4375 1.37905C19.3394 1.38015 19.2434 1.40717 19.1592 1.45738L17.4925 2.45738C17.41 2.50658 17.3416 2.57635 17.2942 2.65988C17.247 2.74356 17.2223 2.83801 17.2225 2.93405V4.97072Z" fill="#1A73E8"/>
</g>
<defs>
<clipPath id="clip0_2455_81">
<rect width="20" height="20" fill="white"/>
</clipPath>
</defs>
</svg>
