<svg width="21" height="22" viewBox="0 0 21 22" fill="none" xmlns="http://www.w3.org/2000/svg">
<path d="M1.3125 1.8125H19.6875V20.1875H1.3125V1.8125Z" fill="#F5DE19"/>
<path d="M13.654 16.1681C13.8105 16.4861 14.0538 16.7534 14.3557 16.9392C14.6575 17.1249 15.0058 17.2216 15.3602 17.2181C16.0755 17.2181 16.5329 16.8604 16.5329 16.3649C16.5329 15.7743 16.0631 15.563 15.2756 15.2185L14.8438 15.0334C13.5969 14.5025 12.77 13.8377 12.77 12.432C12.77 11.1373 13.7544 10.1509 15.2985 10.1509C15.7984 10.1148 16.2978 10.2267 16.7345 10.4726C17.1712 10.7185 17.5259 11.0875 17.7542 11.5336L16.4043 12.3966C16.3164 12.1754 16.1633 11.9861 15.9653 11.8539C15.7674 11.7217 15.5339 11.6528 15.2959 11.6564C15.1921 11.646 15.0872 11.6573 14.988 11.6897C14.8888 11.7221 14.7974 11.7747 14.7196 11.8444C14.6419 11.914 14.5795 11.9991 14.5365 12.0942C14.4935 12.1892 14.4707 12.2922 14.4697 12.3966C14.4697 12.9144 14.7906 13.1244 15.5315 13.4466L15.9633 13.6317C17.4307 14.261 18.2602 14.9022 18.2602 16.3439C18.2602 17.8986 17.0389 18.7504 15.3989 18.7504C14.7599 18.7911 14.1228 18.6461 13.5645 18.3327C13.0061 18.0193 12.5504 17.5511 12.2522 16.9844L13.654 16.1681ZM7.55413 16.3177C7.82516 16.7987 8.07191 17.2056 8.66516 17.2056C9.23216 17.2056 9.59047 16.9838 9.59047 16.1208V10.2494H11.3171V16.1438C11.3171 17.9314 10.2671 18.7452 8.73866 18.7452C8.1984 18.7747 7.66185 18.6401 7.19954 18.359C6.73724 18.0778 6.37081 17.6634 6.14844 17.1702L7.55413 16.3177Z" fill="black"/>
</svg>
