<svg width="29" height="23" viewBox="0 0 29 23" fill="none" xmlns="http://www.w3.org/2000/svg">
<g clip-path="url(#clip0_2705_43)">
<path d="M6.53915 22.2026V10.9267L3.09155 7.72749L0 5.95215V20.2127C0 21.3137 0.879462 22.2026 1.96179 22.2026H6.53915Z" fill="#4285F4"/>
<path d="M22.2344 22.2025H26.8117C27.8973 22.2025 28.7735 21.3103 28.7735 20.2126V5.95215L25.2719 7.98559L22.2344 10.9266V22.2025Z" fill="#34A853"/>
<path d="M6.53943 10.9268L6.07031 6.52099L6.53943 2.3042L14.3864 8.27376L22.2333 2.3042L22.7581 6.29333L22.2333 10.9268L14.3864 16.8964L6.53943 10.9268Z" fill="#EA4335"/>
<path d="M22.2344 2.30404V10.9266L28.7735 5.95208V3.29893C28.7735 0.838209 26.0042 -0.564578 24.0655 0.911169L22.2344 2.30404Z" fill="#FBBC04"/>
<path d="M0 5.95213L3.00748 8.24014L6.53915 10.9267V2.30409L4.70807 0.911222C2.76595 -0.564639 0 0.838261 0 3.29887V5.95202V5.95213Z" fill="#C5221F"/>
</g>
<defs>
<clipPath id="clip0_2705_43">
<rect width="28.7722" height="22.0023" fill="white" transform="translate(0 0.308594)"/>
</clipPath>
</defs>
</svg>
