<svg width="28" height="28" viewBox="0 0 28 28" fill="none" xmlns="http://www.w3.org/2000/svg">
<g clip-path="url(#clip0_2705_57)">
<path d="M24.7852 0.722266H2.78295C2.28373 0.717185 1.80289 0.910352 1.44593 1.25938C1.08897 1.60841 0.885044 2.08479 0.878906 2.58399V24.6751C0.886154 25.1736 1.09056 25.6489 1.4474 25.997C1.80424 26.3451 2.28445 26.5377 2.78295 26.5326H24.7852C25.2844 26.5366 25.765 26.3427 26.1217 25.9935C26.4785 25.6442 26.6825 25.168 26.6892 24.6688V2.57765C26.6803 2.07991 26.4753 1.6058 26.1188 1.25837C25.7623 0.910945 25.283 0.718284 24.7852 0.722266Z" fill="#0076B2"/>
<path d="M4.70308 10.397H8.53444V22.7246H4.70308V10.397ZM6.61982 4.26172C7.05926 4.26172 7.48882 4.39205 7.85417 4.63624C8.21952 4.88042 8.50424 5.22748 8.67231 5.6335C8.84038 6.03953 8.88425 6.48628 8.79836 6.91725C8.71248 7.34821 8.5007 7.74402 8.18982 8.0546C7.87895 8.36518 7.48294 8.57658 7.05189 8.66206C6.62085 8.74753 6.17413 8.70324 5.76827 8.53478C5.3624 8.36632 5.01561 8.08128 4.77178 7.71569C4.52795 7.35011 4.39802 6.92042 4.39844 6.48098C4.399 5.8922 4.63328 5.32773 5.04981 4.9116C5.46634 4.49547 6.03104 4.26172 6.61982 4.26172ZM10.9378 10.397H14.6104V12.0894H14.6612C15.1732 11.1205 16.4214 10.0987 18.2852 10.0987C22.1653 10.0902 22.8846 12.6437 22.8846 15.9546V22.7246H19.0532V16.7268C19.0532 15.2988 19.0278 13.4604 17.0624 13.4604C15.097 13.4604 14.7628 15.0174 14.7628 16.6338V22.7246H10.9378V10.397Z" fill="white"/>
</g>
<defs>
<clipPath id="clip0_2705_57">
<rect width="27.0797" height="27.0797" fill="white" transform="translate(0.246094 0.0876465)"/>
</clipPath>
</defs>
</svg>
