<svg width="32" height="32" viewBox="0 0 32 32" fill="none" xmlns="http://www.w3.org/2000/svg">
<path d="M13.2786 2.427C12.4961 2.427 11.7456 2.73785 11.1923 3.29117C10.639 3.84448 10.3281 4.59494 10.3281 5.37745V7.34441H29.0143V5.37745C29.0143 4.59494 28.7034 3.84448 28.1501 3.29117C27.5968 2.73785 26.8463 2.427 26.0638 2.427H13.2786ZM13.2786 29.9645C12.4961 29.9645 11.7456 29.6536 11.1923 29.1003C10.639 28.547 10.3281 27.7965 10.3281 27.014V25.0471H29.0143V27.014C29.0143 27.7965 28.7034 28.547 28.1501 29.1003C27.5968 29.6536 26.8463 29.9645 26.0638 29.9645H13.2786Z" fill="#7167A4"/>
<path d="M10.3281 6.36084H29.0143V26.0305H10.3281V6.36084Z" fill="#321B41"/>
<path d="M17.7065 10.295C17.7065 10.0342 17.8101 9.78402 17.9945 9.59958C18.179 9.41514 18.4291 9.31152 18.6899 9.31152H20.6569C20.9177 9.31152 21.1679 9.41514 21.3523 9.59958C21.5368 9.78402 21.6404 10.0342 21.6404 10.295V12.262C21.6404 12.5228 21.5368 12.773 21.3523 12.9574C21.1679 13.1418 20.9177 13.2454 20.6569 13.2454H18.6899C18.4291 13.2454 18.179 13.1418 17.9945 12.9574C17.8101 12.773 17.7065 12.5228 17.7065 12.262V10.295ZM12.7891 15.2124C12.7891 14.9516 12.8927 14.7014 13.0771 14.517C13.2616 14.3325 13.5117 14.2289 13.7725 14.2289H15.7395C16.0003 14.2289 16.2505 14.3325 16.4349 14.517C16.6194 14.7014 16.723 14.9516 16.723 15.2124V17.1794C16.723 17.4402 16.6194 17.6904 16.4349 17.8748C16.2505 18.0592 16.0003 18.1629 15.7395 18.1629H13.7725C13.5117 18.1629 13.2616 18.0592 13.0771 17.8748C12.8927 17.6904 12.7891 17.4402 12.7891 17.1794V15.2124ZM18.6899 19.1463C18.4291 19.1463 18.179 19.25 17.9945 19.4344C17.8101 19.6188 17.7065 19.869 17.7065 20.1298V22.0968C17.7065 22.3576 17.8101 22.6078 17.9945 22.7922C18.179 22.9766 18.4291 23.0803 18.6899 23.0803H20.6569C20.9177 23.0803 21.1679 22.9766 21.3523 22.7922C21.5368 22.6078 21.6404 22.3576 21.6404 22.0968V20.1298C21.6404 19.869 21.5368 19.6188 21.3523 19.4344C21.1679 19.25 20.9177 19.1463 20.6569 19.1463H18.6899Z" fill="#00A6ED"/>
<path d="M12.7891 10.295C12.7891 10.0342 12.8927 9.78402 13.0771 9.59958C13.2616 9.41514 13.5117 9.31152 13.7725 9.31152H15.7395C16.0003 9.31152 16.2505 9.41514 16.4349 9.59958C16.6194 9.78402 16.723 10.0342 16.723 10.295V12.262C16.723 12.5228 16.6194 12.773 16.4349 12.9574C16.2505 13.1418 16.0003 13.2454 15.7395 13.2454H13.7725C13.5117 13.2454 13.2616 13.1418 13.0771 12.9574C12.8927 12.773 12.7891 12.5228 12.7891 12.262V10.295ZM12.7891 20.1298C12.7891 19.869 12.8927 19.6188 13.0771 19.4344C13.2616 19.25 13.5117 19.1463 13.7725 19.1463H15.7395C16.0003 19.1463 16.2505 19.25 16.4349 19.4344C16.6194 19.6188 16.723 19.869 16.723 20.1298V22.0968C16.723 22.3576 16.6194 22.6078 16.4349 22.7922C16.2505 22.9766 16.0003 23.0803 15.7395 23.0803H13.7725C13.5117 23.0803 13.2616 22.9766 13.0771 22.7922C12.8927 22.6078 12.7891 22.3576 12.7891 22.0968V20.1298ZM23.6074 14.2289C23.3465 14.2289 23.0964 14.3325 22.9119 14.517C22.7275 14.7014 22.6239 14.9516 22.6239 15.2124V17.1794C22.6239 17.4402 22.7275 17.6904 22.9119 17.8748C23.0964 18.0592 23.3465 18.1629 23.6074 18.1629H25.5743C25.8352 18.1629 26.0853 18.0592 26.2697 17.8748C26.4542 17.6904 26.5578 17.4402 26.5578 17.1794V15.2124C26.5578 14.9516 26.4542 14.7014 26.2697 14.517C26.0853 14.3325 25.8352 14.2289 25.5743 14.2289H23.6074Z" fill="#FF822D"/>
<path d="M11.3914 15.7828L6.92639 11.721C6.85308 11.653 6.7614 11.6082 6.66277 11.592C6.56414 11.5757 6.46292 11.5889 6.37172 11.6298C6.28051 11.6707 6.20334 11.7375 6.14983 11.8219C6.09632 11.9063 6.06882 12.0046 6.07076 12.1045V13.8846C6.07076 14.1699 5.84456 14.3961 5.55935 14.3961H3.70057C3.50234 14.3961 3.31222 14.4748 3.17205 14.615C3.03187 14.7552 2.95312 14.9453 2.95312 15.1435V17.1891C2.95312 17.6022 3.28751 17.9366 3.70057 17.9366H5.55935C5.84456 17.9366 6.07076 18.1628 6.07076 18.448V20.2281C6.07076 20.6707 6.60184 20.9067 6.92639 20.6117L11.3914 16.5499C11.6176 16.3434 11.6176 15.9893 11.3914 15.7828Z" fill="#00A6ED"/>
<path d="M22.6244 10.295C22.6244 10.0342 22.7281 9.78402 22.9125 9.59958C23.0969 9.41514 23.3471 9.31152 23.6079 9.31152H25.5749C25.8357 9.31152 26.0859 9.41514 26.2703 9.59958C26.4547 9.78402 26.5584 10.0342 26.5584 10.295V12.262C26.5584 12.5228 26.4547 12.773 26.2703 12.9574C26.0859 13.1418 25.8357 13.2454 25.5749 13.2454H23.6079C23.3471 13.2454 23.0969 13.1418 22.9125 12.9574C22.7281 12.773 22.6244 12.5228 22.6244 12.262V10.295ZM17.707 15.2124C17.707 14.9516 17.8106 14.7014 17.9951 14.517C18.1795 14.3325 18.4297 14.2289 18.6905 14.2289H20.6575C20.9183 14.2289 21.1685 14.3325 21.3529 14.517C21.5373 14.7014 21.641 14.9516 21.641 15.2124V17.1794C21.641 17.4402 21.5373 17.6904 21.3529 17.8748C21.1685 18.0592 20.9183 18.1629 20.6575 18.1629H18.6905C18.4297 18.1629 18.1795 18.0592 17.9951 17.8748C17.8106 17.6904 17.707 17.4402 17.707 17.1794V15.2124ZM23.6079 19.1463C23.3471 19.1463 23.0969 19.25 22.9125 19.4344C22.7281 19.6188 22.6244 19.869 22.6244 20.1298V22.0968C22.6244 22.3576 22.7281 22.6078 22.9125 22.7922C23.0969 22.9766 23.3471 23.0803 23.6079 23.0803H25.5749C25.8357 23.0803 26.0859 22.9766 26.2703 22.7922C26.4547 22.6078 26.5584 22.3576 26.5584 22.0968V20.1298C26.5584 19.869 26.4547 19.6188 26.2703 19.4344C26.0859 19.25 25.8357 19.1463 25.5749 19.1463H23.6079Z" fill="#FCD53F"/>
</svg>
