<svg width="28" height="28" viewBox="0 0 28 28" fill="none" xmlns="http://www.w3.org/2000/svg">
<g clip-path="url(#clip0_2705_60)">
<path d="M25.0926 8.03144C25.1091 8.27029 25.1091 8.50893 25.1091 8.74989C25.1091 16.091 19.5203 24.5577 9.3013 24.5577V24.5534C6.28235 24.5577 3.32598 23.6929 0.785156 22.0625C1.22414 22.1154 1.66525 22.1419 2.10741 22.1429C4.60955 22.1449 7.03973 21.3057 9.00744 19.7601C7.84808 19.7382 6.72455 19.3546 5.79393 18.6628C4.86331 17.971 4.17213 17.0057 3.81702 15.9019C4.64994 16.0627 5.50802 16.0295 6.32549 15.8061C3.73346 15.2824 1.86877 13.0052 1.86877 10.3605V10.2901C2.64145 10.7205 3.50625 10.959 4.39035 10.9855C1.94874 9.3539 1.19664 6.10624 2.67079 3.56731C4.06559 5.28362 5.80582 6.68734 7.77845 7.68729C9.75109 8.68724 11.912 9.26105 14.1208 9.37146C13.9007 8.42341 13.9333 7.43417 14.2154 6.50267C14.4974 5.57116 15.0191 4.73004 15.7283 4.06341C17.966 1.95987 21.4853 2.06777 23.5886 4.30438C24.8328 4.0587 26.026 3.60252 27.1168 2.95547C26.702 4.24191 25.8341 5.33391 24.6745 6.02838C25.7758 5.89853 26.8513 5.60363 27.8649 5.15358C27.1193 6.27012 26.1805 7.24467 25.0926 8.03144Z" fill="#1D9BF0"/>
</g>
<defs>
<clipPath id="clip0_2705_60">
<rect width="27.0797" height="27.0797" fill="white" transform="translate(0.785156 0.0158691)"/>
</clipPath>
</defs>
</svg>
